<svg width="30" height="30" viewBox="0 0 30 30" fill="none" xmlns="http://www.w3.org/2000/svg">
<path d="M27.8571 16.0714C26.1607 13.4375 24.0346 11.4676 21.4788 10.1618C22.1596 11.3225 22.5 12.5781 22.5 13.9286C22.5 15.9933 21.7662 17.7595 20.2985 19.2271C18.8309 20.6947 17.0647 21.4286 15 21.4286C12.9353 21.4286 11.1691 20.6947 9.70145 19.2271C8.23382 17.7595 7.5 15.9933 7.5 13.9286C7.5 12.5781 7.8404 11.3225 8.5212 10.1618C5.9654 11.4676 3.83929 13.4375 2.14286 16.0714C3.62723 18.3594 5.48828 20.1813 7.726 21.5374C9.96373 22.8934 12.3884 23.5714 15 23.5714C17.6116 23.5714 20.0363 22.8934 22.274 21.5374C24.5117 20.1813 26.3728 18.3594 27.8571 16.0714ZM15.8036 9.64284C15.8036 9.41963 15.7254 9.2299 15.5692 9.07365C15.4129 8.9174 15.2232 8.83927 15 8.83927C13.6049 8.83927 12.4079 9.33871 11.409 10.3376C10.4102 11.3365 9.91071 12.5335 9.91071 13.9286C9.91071 14.1518 9.98884 14.3415 10.1451 14.4978C10.3013 14.654 10.4911 14.7321 10.7143 14.7321C10.9375 14.7321 11.1272 14.654 11.2835 14.4978C11.4397 14.3415 11.5179 14.1518 11.5179 13.9286C11.5179 12.9687 11.8583 12.1484 12.5391 11.4676C13.2199 10.7868 14.0402 10.4464 15 10.4464C15.2232 10.4464 15.4129 10.3683 15.5692 10.212C15.7254 10.0558 15.8036 9.86606 15.8036 9.64284ZM30 16.0714C30 16.4509 29.8884 16.8359 29.6652 17.2265C28.1027 19.7935 26.0017 21.8499 23.3622 23.3956C20.7227 24.9414 17.9353 25.7143 15 25.7143C12.0647 25.7143 9.27734 24.9386 6.63783 23.3873C3.99833 21.8359 1.89732 19.7824 0.334821 17.2265C0.111607 16.8359 0 16.4509 0 16.0714C0 15.692 0.111607 15.3069 0.334821 14.9163C1.89732 12.3605 3.99833 10.3069 6.63783 8.75557C9.27734 7.20423 12.0647 6.42856 15 6.42856C17.9353 6.42856 20.7227 7.20423 23.3622 8.75557C26.0017 10.3069 28.1027 12.3605 29.6652 14.9163C29.8884 15.3069 30 15.692 30 16.0714Z" fill="#115691"/>
</svg>
