<svg width="39" height="29" viewBox="0 0 39 29" fill="none" xmlns="http://www.w3.org/2000/svg">
<path d="M23.1875 16.4472C22.5051 19.2659 26.2987 19.9832 25.4031 21.9692C24.5071 23.9547 22.5018 23.5578 22.7255 25.5433C22.9498 27.5292 25.6034 27.5572 28.0194 26.3609C32.8508 23.968 33.859 18.7412 31.6725 16.4472C28.9854 13.6284 23.8698 13.6284 23.1875 16.4472Z" fill="#115691" stroke="#115691"/>
<path d="M31.6239 14.2569C32.0294 14.5823 32.7717 14.3745 33.282 13.7928C33.7924 13.2111 33.8774 12.4757 33.4719 12.1503C33.0665 11.8248 32.3241 12.0326 31.8138 12.6143C31.3035 13.1961 31.2185 13.9315 31.6239 14.2569Z" fill="#115691"/>
<path d="M29.4709 13.1061C29.9506 13.32 30.6114 12.9355 30.947 12.2473C31.2825 11.559 31.1656 10.8277 30.6859 10.6137C30.2062 10.3998 29.5454 10.7842 29.2099 11.4725C28.8743 12.1607 28.9912 12.8921 29.4709 13.1061Z" fill="#115691"/>
<path d="M27.0532 12.7689C27.5796 12.8218 28.0736 12.2524 28.1565 11.4972C28.2395 10.742 27.8801 10.0868 27.3537 10.0339C26.8273 9.98101 26.3334 10.5503 26.2504 11.3056C26.1674 12.0608 26.5268 12.7159 27.0532 12.7689Z" fill="#115691"/>
<path d="M23.3638 12.3894C24.1098 12.1297 24.4211 11.1479 24.0591 10.1964C23.697 9.24494 22.7987 8.68418 22.0527 8.94391C21.3067 9.20363 20.9954 10.1855 21.3574 11.137C21.7195 12.0884 22.6178 12.6492 23.3638 12.3894Z" fill="#115691" stroke="#115691"/>
<path d="M33.3636 15.9212C33.7038 16.309 34.4726 16.2277 35.0808 15.7395C35.6889 15.2514 35.9062 14.5413 35.566 14.1535C35.2257 13.7657 34.4569 13.847 33.8488 14.3351C33.2406 14.8233 33.0234 15.5333 33.3636 15.9212Z" fill="#115691"/>
<path d="M15.8125 9.44719C16.4949 12.2659 12.7013 12.9832 13.5969 14.9692C14.4929 16.9547 16.4982 16.5578 16.2745 18.5433C16.0502 20.5292 13.3966 20.5572 10.9806 19.3609C6.14918 16.968 5.14101 11.7412 7.32745 9.44719C10.0146 6.62844 15.1302 6.62844 15.8125 9.44719Z" fill="#115691" stroke="#115691"/>
<path d="M7.3761 7.25688C6.97065 7.5823 6.22828 7.37452 5.71796 6.79279C5.20765 6.21106 5.12263 5.47568 5.52808 5.15026C5.93353 4.82484 6.6759 5.03262 7.18621 5.61435C7.69653 6.19607 7.78154 6.93146 7.3761 7.25688Z" fill="#115691"/>
<path d="M9.5291 6.10606C9.04942 6.32002 8.38856 5.93553 8.05304 5.24729C7.71752 4.55905 7.83439 3.82767 8.31407 3.61372C8.79376 3.39976 9.45461 3.78425 9.79013 4.47249C10.1257 5.16073 10.0088 5.89211 9.5291 6.10606Z" fill="#115691"/>
<path d="M11.9468 5.76886C11.4204 5.82178 10.9264 5.25244 10.8435 4.49721C10.7605 3.74198 11.1199 3.08685 11.6463 3.03393C12.1727 2.98101 12.6666 3.55035 12.7496 4.30558C12.8326 5.06081 12.4732 5.71594 11.9468 5.76886Z" fill="#115691"/>
<path d="M15.6362 5.38945C14.8902 5.12972 14.5789 4.14786 14.9409 3.1964C15.303 2.24494 16.2013 1.68418 16.9473 1.94391C17.6933 2.20363 18.0046 3.18549 17.6426 4.13695C17.2805 5.08841 16.3822 5.64917 15.6362 5.38945Z" fill="#115691" stroke="#115691"/>
<path d="M5.63642 8.92117C5.29621 9.30899 4.5274 9.22767 3.91923 8.73954C3.31106 8.25141 3.09383 7.54132 3.43404 7.1535C3.77425 6.76568 4.54307 6.847 5.15124 7.33513C5.75941 7.82325 5.97663 8.53335 5.63642 8.92117Z" fill="#115691"/>
</svg>
