<svg width="50" height="50" viewBox="0 0 50 50" fill="none" xmlns="http://www.w3.org/2000/svg">
<g clip-path="url(#clip0_273_546)">
<path d="M4.60938 28.125C8.44375 33.875 14.9344 40.2218 25 46.875C35.0656 40.2218 41.5562 33.875 45.3906 28.125H37.5C37.188 28.1249 36.8831 28.0314 36.6247 27.8565C36.3662 27.6816 36.1661 27.4333 36.05 27.1437L31.4969 15.7625L26.5031 33.2406C26.4138 33.554 26.2288 33.8317 25.9738 34.0348C25.7189 34.2378 25.4068 34.3561 25.0813 34.3729C24.7558 34.3898 24.4332 34.3045 24.1586 34.1289C23.884 33.9533 23.6712 33.6962 23.55 33.3937L18.4031 20.525L13.8 27.4312C13.6571 27.6448 13.4637 27.8199 13.2369 27.9409C13.0102 28.062 12.757 28.1252 12.5 28.125H4.60938Z" fill="#CC0000"/>
<path d="M2.74983 25.0004C-7.58454 5.2504 13.7811 -6.2496 24.4467 3.57227C24.6342 3.74519 24.8175 3.92332 24.9967 4.10665C25.1727 3.92216 25.3562 3.74493 25.5467 3.5754C36.2186 -6.2496 57.5811 5.2504 47.2498 25.0004H38.553L32.6967 10.3566C32.5755 10.0541 32.3627 9.79704 32.0881 9.62145C31.8135 9.44586 31.4909 9.36053 31.1654 9.37741C30.8399 9.39429 30.5278 9.51253 30.2729 9.71558C30.0179 9.91862 29.8329 10.1963 29.7436 10.5098L24.753 27.9879L20.1998 16.6066C20.0938 16.3426 19.9177 16.1126 19.6905 15.9413C19.4633 15.77 19.1936 15.6641 18.9106 15.6348C18.6276 15.6055 18.342 15.6541 18.0846 15.7752C17.8271 15.8964 17.6077 16.0855 17.4498 16.3223L11.6623 25.0004H2.74983Z" fill="#CC0000"/>
</g>
<defs>
<clipPath id="clip0_273_546">
<rect width="50" height="50" fill="white"/>
</clipPath>
</defs>
</svg>
