<svg width="30" height="30" viewBox="0 0 30 30" fill="none" xmlns="http://www.w3.org/2000/svg">
<g clip-path="url(#clip0_273_501)">
<path d="M2.76562 16.875C5.06625 20.325 8.96063 24.1331 15 28.125C21.0394 24.1331 24.9337 20.325 27.2344 16.875H22.5C22.3128 16.875 22.1299 16.8189 21.9748 16.7139C21.8197 16.609 21.6996 16.4601 21.63 16.2863L18.8981 9.45752L15.9019 19.9444C15.8483 20.1325 15.7373 20.2991 15.5843 20.4209C15.4313 20.5427 15.2441 20.6137 15.0488 20.6238C14.8535 20.6339 14.6599 20.5827 14.4952 20.4774C14.3304 20.372 14.2027 20.2178 14.13 20.0363L11.0419 12.315L8.28 16.4588C8.19425 16.587 8.07821 16.692 7.94215 16.7646C7.80609 16.8372 7.65422 16.8751 7.5 16.875H2.76562Z" fill="#115691"/>
<path d="M1.65009 15C-4.55053 3.15002 8.26884 -3.74998 14.6682 2.14314C14.7807 2.24689 14.8907 2.35377 14.9982 2.46377C15.1038 2.35308 15.2139 2.24674 15.3282 2.14502C21.7313 -3.74998 34.5488 3.15002 28.3501 15H23.132L19.6182 6.21377C19.5455 6.03224 19.4178 5.87801 19.253 5.77265C19.0883 5.6673 18.8947 5.6161 18.6994 5.62623C18.5041 5.63635 18.3169 5.7073 18.1639 5.82912C18.011 5.95095 17.8999 6.11757 17.8463 6.30564L14.852 16.7925L12.1201 9.96377C12.0565 9.80536 11.9508 9.66733 11.8145 9.56456C11.6782 9.4618 11.5164 9.39821 11.3466 9.38065C11.1768 9.36309 11.0054 9.39223 10.8509 9.46492C10.6965 9.53762 10.5648 9.6511 10.4701 9.79315L6.99759 15H1.65009Z" fill="#115691"/>
</g>
<defs>
<clipPath id="clip0_273_501">
<rect width="30" height="30" fill="white"/>
</clipPath>
</defs>
</svg>
