<svg width="30" height="30" viewBox="0 0 30 30" fill="none" xmlns="http://www.w3.org/2000/svg">
<path d="M29.8799 14.4375C29.7197 14.2969 29.7197 14.1562 29.5595 14.0156L24.7545 9.79688C24.1139 9.23438 23.1529 9.23438 22.5122 9.79688C21.8715 10.3594 21.8715 11.2031 22.5122 11.7656L24.5944 13.5937H17.2267C16.2657 13.5937 15.625 14.1562 15.625 15C15.625 15.8437 16.2657 16.4062 17.2267 16.4062H24.5944L22.5122 18.2344C21.8715 18.7969 21.8715 19.6406 22.5122 20.2031C22.8325 20.4844 23.313 20.625 23.6334 20.625C23.9537 20.625 24.4342 20.4844 24.7545 20.2031L29.5595 15.9844C29.7197 15.8437 29.8799 15.7031 29.8799 15.5625C30.04 15.1406 30.04 14.8594 29.8799 14.4375Z" fill="#115691"/>
<path d="M20.5871 25.1667C18.7754 26.1667 16.7991 26.6667 14.8227 26.6667C8.39954 26.6667 3.29394 21.5 3.29394 15C3.29394 8.5 8.39954 3.33333 14.8227 3.33333C16.7991 3.33333 18.7754 3.83333 20.5871 4.83333C21.4106 5.33333 22.3988 5 22.8929 4.16667C23.3869 3.33333 23.0576 2.33333 22.2341 1.83333C19.9283 0.666667 17.4579 0 14.8227 0C6.58787 0 0 6.66667 0 15C0 23.3333 6.58787 30 14.8227 30C17.4579 30 19.9283 29.3333 22.2341 28C23.0576 27.5 23.2222 26.5 22.8929 25.6667C22.3988 25 21.4106 24.6667 20.5871 25.1667Z" fill="#115691"/>
</svg>
