<svg width="50" height="50" viewBox="0 0 50 50" fill="none" xmlns="http://www.w3.org/2000/svg">
<path d="M37.4998 6.25C39.71 6.25 41.8296 7.12797 43.3924 8.69078C44.9552 10.2536 45.8332 12.3732 45.8332 14.5833V31.25C45.8332 33.4601 44.9552 35.5798 43.3924 37.1426C41.8296 38.7054 39.71 39.5833 37.4998 39.5833H27.6582L17.7373 45.5354C17.4386 45.7147 17.0996 45.8162 16.7514 45.8306C16.4033 45.845 16.0571 45.7719 15.7445 45.6179C15.432 45.4639 15.163 45.2339 14.9623 44.9491C14.7616 44.6643 14.6355 44.3337 14.5957 43.9875L14.5832 43.75V39.5833H12.4998C10.3618 39.5833 8.30561 38.7616 6.75648 37.2881C5.20735 35.8146 4.28382 33.802 4.17692 31.6667L4.1665 31.25V14.5833C4.1665 12.3732 5.04448 10.2536 6.60728 8.69078C8.17008 7.12797 10.2897 6.25 12.4998 6.25H37.4998ZM29.1665 25H16.6665C16.114 25 15.5841 25.2195 15.1934 25.6102C14.8027 26.0009 14.5832 26.5308 14.5832 27.0833C14.5832 27.6359 14.8027 28.1658 15.1934 28.5565C15.5841 28.9472 16.114 29.1667 16.6665 29.1667H29.1665C29.719 29.1667 30.2489 28.9472 30.6396 28.5565C31.0303 28.1658 31.2498 27.6359 31.2498 27.0833C31.2498 26.5308 31.0303 26.0009 30.6396 25.6102C30.2489 25.2195 29.719 25 29.1665 25ZM33.3332 16.6667H16.6665C16.114 16.6667 15.5841 16.8862 15.1934 17.2769C14.8027 17.6676 14.5832 18.1975 14.5832 18.75C14.5832 19.3025 14.8027 19.8324 15.1934 20.2231C15.5841 20.6138 16.114 20.8333 16.6665 20.8333H33.3332C33.8857 20.8333 34.4156 20.6138 34.8063 20.2231C35.197 19.8324 35.4165 19.3025 35.4165 18.75C35.4165 18.1975 35.197 17.6676 34.8063 17.2769C34.4156 16.8862 33.8857 16.6667 33.3332 16.6667Z" fill="#115691"/>
</svg>
