<svg width="50" height="50" viewBox="0 0 50 50" fill="none" xmlns="http://www.w3.org/2000/svg">
<path d="M25 0C11.2143 0 0 11.2143 0 25C0 38.7857 11.2143 50 25 50C38.7857 50 50 38.7857 50 25C50 11.2143 38.7857 0 25 0ZM32.854 32.6367C32.0989 33.7372 31.1097 34.5629 29.8129 35.1793C28.8563 35.6032 27.8605 35.8636 26.832 35.9605V39.3209C26.832 39.8338 26.4172 40.2473 25.9055 40.2473H23.1327C22.6197 40.2473 22.2062 39.8325 22.2062 39.3209V35.67C21.6841 35.5417 21.1699 35.3625 20.6543 35.1269C19.2685 34.5616 18.151 33.6404 17.3672 32.4012C16.5807 31.251 16.1581 29.9071 16.0926 28.3198C16.0717 27.8173 16.4551 27.3907 16.9563 27.3567L19.4465 27.1866C19.9477 27.1578 20.3716 27.5124 20.4305 28.0018C20.53 28.8354 20.7642 29.525 21.1097 29.9961C21.4983 30.5797 21.9969 30.9631 22.7506 31.2719C24.347 31.9746 26.3779 31.9759 27.7833 31.4355C28.4062 31.1685 28.8472 30.8623 29.139 30.4855C29.3889 30.1269 29.5119 29.7501 29.5119 29.2999C29.5119 28.8773 29.4033 28.5658 29.1403 28.2282C29.0029 28.045 28.6483 27.7022 27.7153 27.3292C27.2599 27.1787 26.0769 26.8425 24.2764 26.4067C22.1735 25.882 20.9566 25.4842 20.2015 25.0746C19.0775 24.4805 18.2334 23.7399 17.7035 22.8775C17.1604 21.9995 16.8856 20.9971 16.8856 19.9006C16.8856 18.7071 17.2193 17.57 17.8762 16.5205C18.5567 15.4973 19.5603 14.6938 20.793 14.1756C21.2052 13.9885 21.6736 13.8315 22.2075 13.7058V10.6163C22.2075 10.1034 22.6223 9.68987 23.134 9.68987H25.9068C26.4198 9.68987 26.8333 10.1047 26.8333 10.6163V13.5423C27.6668 13.681 28.4389 13.8917 29.139 14.1704C30.4933 14.7789 31.4761 15.5941 32.1774 16.6789C32.8801 17.7022 33.2766 18.9309 33.346 20.3088C33.3708 20.8139 32.9861 21.2457 32.481 21.2798L29.932 21.4512C29.4399 21.4852 29.0173 21.1345 28.9505 20.6517C28.8079 19.6061 28.4585 18.8759 27.8814 18.4219C27.2259 17.8631 26.2745 17.6027 24.945 17.6027C23.643 17.6027 22.5975 17.8553 21.9995 18.3159C21.514 18.6901 21.2863 19.1403 21.2863 19.7317C21.2863 20.1871 21.4289 20.5444 21.7103 20.7956C21.8595 20.9134 22.6734 21.4433 25.3049 21.9969C27.4784 22.5098 29.0762 22.977 29.9516 23.3538C31.3465 23.9819 32.3436 24.7919 32.9286 25.7655C33.5815 26.743 33.91 27.837 33.91 29.0722C33.91 30.3572 33.5554 31.5559 32.854 32.6367Z" fill="#EABE3F"/>
</svg>
