<svg width="30" height="30" viewBox="0 0 30 30" fill="none" xmlns="http://www.w3.org/2000/svg">
<path d="M15.5205 27.1547C18.5975 27.1513 21.5633 26.0035 23.8408 23.9344C23.5736 23.9344 23.3064 23.9344 23.0393 23.9344C20.5913 23.9319 18.1919 23.2503 16.1082 21.9656C14.0244 20.6809 12.3378 18.8433 11.236 16.6573C10.1343 14.4712 9.66049 12.0224 9.8674 9.58315C10.0743 7.14391 10.9538 4.80988 12.408 2.84064C9.50374 3.60123 6.97573 5.3932 5.29631 7.88173C3.61688 10.3703 2.90093 13.3851 3.28221 16.363C3.66349 19.3409 5.11592 22.0781 7.36815 24.0633C9.62037 26.0484 12.5183 27.1457 15.5205 27.15V27.1547Z" fill="#115691"/>
<path d="M18.8482 6.71249C18.7969 6.70277 18.7484 6.68174 18.7063 6.65093C18.6641 6.62012 18.6293 6.5803 18.6045 6.53437L17.7842 5.04843L16.9686 6.53437C16.9437 6.5803 16.9089 6.62012 16.8668 6.65093C16.8246 6.68174 16.7761 6.70277 16.7248 6.71249L15.0607 7.03124L16.2186 8.26874C16.2552 8.3059 16.2828 8.35107 16.2991 8.40069C16.3153 8.4503 16.3199 8.50302 16.3123 8.55468L16.1014 10.2328L17.6342 9.51562C17.6808 9.49249 17.7321 9.48045 17.7842 9.48045C17.8362 9.48045 17.8876 9.49249 17.9342 9.51562L19.4717 10.2328L19.2607 8.55468C19.2533 8.50339 19.2574 8.45109 19.2728 8.40161C19.2882 8.35212 19.3145 8.30672 19.3498 8.26874L20.5123 7.03124L18.8482 6.71249ZM26.1279 13.6172L25.992 12.5297C25.9851 12.478 25.99 12.4255 26.0062 12.376C26.0225 12.3265 26.0496 12.2813 26.0857 12.2437L26.8311 11.4469L25.7576 11.25C25.7066 11.2394 25.6585 11.218 25.6165 11.1873C25.5745 11.1565 25.5395 11.1172 25.5139 11.0719L24.9889 10.1344L24.4592 11.0719C24.4351 11.1175 24.4011 11.1571 24.3598 11.1879C24.3184 11.2187 24.2707 11.2399 24.2201 11.25L23.1467 11.4516L23.9061 12.2437C23.9413 12.2819 23.968 12.3271 23.9841 12.3765C24.0003 12.4258 24.0057 12.4781 23.9998 12.5297L23.8639 13.6172L24.8529 13.1484C24.9 13.1269 24.9512 13.1158 25.0029 13.1158C25.0547 13.1158 25.1058 13.1269 25.1529 13.1484L26.1279 13.6172ZM17.0154 16.5281C17.0504 16.5663 17.0765 16.6117 17.0919 16.6611C17.1073 16.7106 17.1116 16.7628 17.1045 16.8141L16.9686 17.8969L17.9576 17.4281C18.0045 17.4061 18.0558 17.3949 18.1076 17.3953C18.1595 17.3944 18.2109 17.4056 18.2576 17.4281L19.2467 17.8969L19.1107 16.8141C19.1046 16.7624 19.1098 16.7101 19.1259 16.6607C19.1421 16.6113 19.169 16.5661 19.2045 16.5281L19.9545 15.7312L18.8811 15.525C18.8303 15.5155 18.7822 15.495 18.7401 15.4651C18.698 15.4352 18.6629 15.3964 18.6373 15.3516L18.1076 14.3906L17.5826 15.3516C17.557 15.3964 17.5219 15.4352 17.4798 15.4651C17.4377 15.495 17.3896 15.5155 17.3389 15.525L16.2654 15.7312L17.0154 16.5281Z" fill="#115691"/>
</svg>
