<svg width="40" height="45" viewBox="0 0 40 45" fill="none" xmlns="http://www.w3.org/2000/svg">
<path d="M40 34.9855V37.2186C40 37.4784 39.8891 37.7275 39.6917 37.9112C39.4943 38.0949 39.2265 38.1981 38.9474 38.1981H1.05263C0.773457 38.1981 0.505716 38.0949 0.30831 37.9112C0.110903 37.7275 8.42721e-07 37.4784 8.42721e-07 37.2186V34.9855C-0.000579342 34.2661 0.298439 33.5744 0.834271 33.0558C1.3701 32.5371 2.10107 32.2318 2.87369 32.2039C3.02308 31.9522 3.11954 31.6763 3.1579 31.391V19.7063C3.15175 17.4028 3.71197 15.1285 4.79571 13.0574C5.87945 10.9863 7.45798 9.17331 9.41053 7.75715C11.3907 6.32054 13.698 5.32472 16.1557 4.84597C18.6134 4.36722 21.1563 4.41824 23.5895 4.99513C30.3158 6.52306 35.7895 13.1832 35.7895 19.8336V31.1363C36.1062 31.5791 36.5321 31.9452 37.0316 32.2039C37.8208 32.2091 38.5758 32.5044 39.1319 33.0255C39.688 33.5466 40 34.2512 40 34.9855ZM19.4947 3.54556C20.7262 3.55399 21.9535 3.67869 23.1579 3.91775V2.93831C23.1579 2.15902 22.8252 1.41165 22.233 0.860612C21.6407 0.309571 20.8375 0 20 0C19.1625 0 18.3593 0.309571 17.767 0.860612C17.1748 1.41165 16.8421 2.15902 16.8421 2.93831V3.74145C17.7198 3.6147 18.6065 3.54922 19.4947 3.54556ZM12.7158 39.1775C12.9814 40.798 13.8622 42.2763 15.1985 43.3445C16.5348 44.4127 18.2383 45 20 45C21.7617 45 23.4652 44.4127 24.8015 43.3445C26.1378 42.2763 27.0186 40.798 27.2842 39.1775H12.7158Z" fill="#115691"/>
</svg>
