<svg width="30" height="30" viewBox="0 0 30 30" fill="none" xmlns="http://www.w3.org/2000/svg">
<path d="M14.9063 1.19526C16.582 1.27729 18.7383 1.68744 20.1094 2.19135L20.4492 2.32026L20.7774 3.11713C21.2344 4.23041 21.75 5.26166 22.1133 5.80073C22.3477 6.14057 22.418 6.31635 22.418 6.45698C22.418 7.07807 21.4688 8.03901 20.3555 8.54291C20.1563 8.63666 20.0156 8.73041 20.0391 8.75385C20.0625 8.77729 20.25 8.91791 20.4492 9.05854C20.6484 9.21088 20.9531 9.44526 21.1289 9.5976C21.5508 9.94916 22.8047 11.1679 22.8047 11.2265C22.8047 11.2968 22.2188 11.2734 21.7969 11.1914C21.5742 11.1445 21.1875 11.0273 20.918 10.9453C20.3203 10.746 20.0859 10.746 19.1602 10.9335C18.5391 11.0624 18.4102 11.1093 18.1758 11.2851C18.0234 11.4023 17.6953 11.6249 17.4492 11.7773C17.1914 11.9296 16.9688 12.0937 16.9453 12.1406C16.8984 12.246 17.1914 12.4804 17.3672 12.4804C17.4492 12.4804 17.6719 12.3984 17.8477 12.3046C18.1992 12.1289 19.2539 11.6953 19.2774 11.7187C19.3008 11.7421 18.8555 12.0585 18.6094 12.1757C18.4922 12.2343 18.2461 12.3281 18.0586 12.3749C17.6133 12.5039 17.0391 12.8203 16.2422 13.3828C15.457 13.9335 15.1641 14.2148 15.1992 14.4257C15.2227 14.6718 15.3984 14.6367 15.9844 14.2968C16.2774 14.121 16.7227 13.8867 16.9688 13.7695C17.4141 13.5468 18.3164 13.207 18.3633 13.2539C18.3867 13.289 17.3672 13.7812 17.2852 13.7812C17.1211 13.7812 15.4688 14.7187 15.2109 14.9531C15.0586 15.0937 15.0586 15.2695 15.1875 15.3984C15.2813 15.4804 15.3164 15.4804 15.5156 15.4101C15.6445 15.3632 15.9258 15.2343 16.1484 15.1054C16.5938 14.8593 17.4375 14.5312 18.2227 14.3085C18.5039 14.2265 18.7852 14.1445 18.8203 14.1328C18.8789 14.1093 18.8906 14.121 18.8438 14.1679C18.8086 14.2031 18.5859 14.3085 18.3633 14.3906C18.1289 14.4726 17.5078 14.789 16.9922 15.0703C16.2188 15.5039 16.0313 15.621 15.9961 15.7382C15.9727 15.8203 15.9844 15.914 16.0078 15.9726C16.1133 16.1484 16.3359 16.1015 17.0508 15.7851C17.918 15.3984 19.3711 14.8124 19.4063 14.8476C19.4531 14.8945 18.5274 15.3984 18.1172 15.539C17.6836 15.6914 17.4024 15.8906 17.4024 16.0429C17.4024 16.1601 17.6719 16.371 17.8359 16.371C17.9297 16.371 18.4336 16.2187 18.9727 16.0429C19.5 15.8671 20.2969 15.621 20.7188 15.5273C21.6563 15.3046 22.0899 15.0937 22.9805 14.414C23.9297 13.7109 23.9063 13.7226 24.4805 13.8984C24.8203 14.0039 24.8555 14.0273 24.9844 14.2851C26.2617 16.8046 26.0274 19.8749 24.3399 22.582C23.9297 23.2499 23.3906 23.9296 22.5352 24.8906C22.1016 25.371 21.6445 25.9101 21.5156 26.0976C21.1875 26.5429 21.0352 27.0585 21.0352 27.6914C21.0352 28.1953 21.0938 28.3945 21.3164 28.6992L21.3984 28.8163H13.8281H6.25782L5.82423 28.1367C5.05079 26.9648 4.68751 26.1796 4.41798 25.1249C4.20704 24.3046 4.16017 23.0976 4.33595 22.289C4.48829 21.539 4.91017 20.4257 5.43751 19.4062C5.82423 18.6328 6.55079 17.3788 6.63282 17.332C6.64454 17.3203 7.11329 17.7304 7.65236 18.246C8.71876 19.2656 9.31642 19.7695 9.87892 20.1679C10.0781 20.3085 10.5352 20.6953 10.875 21.0234C11.4961 21.621 11.5078 21.621 12.6445 22.207C13.2656 22.5234 14.1797 23.0039 14.6484 23.2734C15.668 23.8476 16.2891 24.0703 17.5078 24.3164C18.5039 24.5156 19.3945 24.5624 20.7305 24.4921C21.7266 24.4453 21.9024 24.3984 21.832 24.2226C21.7852 24.0937 21.7031 24.0468 21.4922 24.0468C21.1875 24.0468 21.457 23.9531 21.8086 23.9531C22.3477 23.9413 22.5 23.789 22.2422 23.5429C22.1367 23.4374 22.043 23.4023 21.6328 23.3789C20.7656 23.3085 20.7539 23.2499 21.6211 23.2499C22.4649 23.2499 22.5469 23.2265 22.5469 22.9921C22.5469 22.8163 22.2656 22.5117 22.0195 22.4296C21.9024 22.3945 21.4219 22.3476 20.9649 22.3124C20.2969 22.2773 19.9688 22.2304 19.4531 22.0898C17.9766 21.7031 17.1914 21.3632 17.1328 21.082C17.1094 20.9531 17.332 20.9648 18.3047 21.0937C19.6406 21.2929 19.6758 21.2929 19.7813 21.1406C19.8984 20.9765 19.8867 20.8007 19.7695 20.6835C19.7109 20.6249 19.2891 20.4374 18.8203 20.2617C18.3516 20.0859 17.6836 19.8046 17.3203 19.6406C16.9688 19.4765 16.5234 19.3124 16.3359 19.2773C15.9961 19.2187 15.9727 19.2187 14.9531 19.4062C14.0039 19.582 13.207 19.2421 12.0352 18.1523C10.9922 17.1796 9.24611 14.8593 8.1797 13.0195C8.01564 12.7382 7.72267 12.246 7.54689 11.9179C6.48048 10.0898 5.76564 7.80463 5.48439 5.34369L5.40236 4.66401L5.63673 4.40619C6.23439 3.72651 7.30079 2.95307 8.3672 2.42573C10.2422 1.46479 12.3164 1.07807 14.9063 1.19526Z" fill="#115691"/>
</svg>
